inDegrees=no
num_controls=7
num_derivatives=13
num_iterations=142
num_multipliers=7
num_parameters=0
num_slacks=7
num_states=26
objective=6.374906
objective_accelerations=0.499636
objective_balance=0.025546
objective_effort=0.491201
objective_height=5.245740
objective_ligament=0.112783
solver_duration=1223.440505
status=Solve_Succeeded
success=true
DataType=double
version=3
OpenSimVersion=4.4-2022-07-23-0e9fedc
endheader
time	/jointset/ground_pelvis/pelvis_tilt/value	/jointset/ground_pelvis/pelvis_tx/value	/jointset/ground_pelvis/pelvis_ty/value	/jointset/hip_r/hip_flexion_r/value	/jointset/hip_r/hip_adduction_r/value	/jointset/hip_r/hip_rotation_r/value	/jointset/back/lumbar_extension/value	/jointset/patellofemoral_r/patellar_flexion_r/value	/jointset/knee_r/knee_flexion_r/value	/jointset/knee_r/knee_adduction_r/value	/jointset/knee_r/knee_rotation_r/value	/jointset/ankle_r/ankle_angle_r/value	/jointset/subtalar_r/subtalar_angle_r/value	/jointset/ground_pelvis/pelvis_tilt/speed	/jointset/ground_pelvis/pelvis_tx/speed	/jointset/ground_pelvis/pelvis_ty/speed	/jointset/hip_r/hip_flexion_r/speed	/jointset/hip_r/hip_adduction_r/speed	/jointset/hip_r/hip_rotation_r/speed	/jointset/back/lumbar_extension/speed	/jointset/patellofemoral_r/patellar_flexion_r/speed	/jointset/knee_r/knee_flexion_r/speed	/jointset/knee_r/knee_adduction_r/speed	/jointset/knee_r/knee_rotation_r/speed	/jointset/ankle_r/ankle_angle_r/speed	/jointset/subtalar_r/subtalar_angle_r/speed	/forceset/tau_hip_flexion_r	/forceset/tau_hip_adduction_r	/forceset/tau_hip_rotation_r	/forceset/tau_knee_flexion_r	/forceset/tau_ankle_angle_r	/forceset/tau_subtalar_angle_r	/forceset/tau_lumbar_extension	lambda_cid13_p0	lambda_cid14_p0	lambda_cid14_p1	lambda_cid14_p2	lambda_cid14_p3	lambda_cid14_p4	lambda_cid14_p5	/jointset/ground_pelvis/pelvis_tilt/accel	/jointset/ground_pelvis/pelvis_tx/accel	/jointset/ground_pelvis/pelvis_ty/accel	/jointset/hip_r/hip_flexion_r/accel	/jointset/hip_r/hip_adduction_r/accel	/jointset/hip_r/hip_rotation_r/accel	/jointset/back/lumbar_extension/accel	/jointset/patellofemoral_r/patellar_flexion_r/accel	/jointset/knee_r/knee_flexion_r/accel	/jointset/knee_r/knee_adduction_r/accel	/jointset/knee_r/knee_rotation_r/accel	/jointset/ankle_r/ankle_angle_r/accel	/jointset/subtalar_r/subtalar_angle_r/accel	gamma_cid13_p0	gamma_cid14_p0	gamma_cid14_p1	gamma_cid14_p2	gamma_cid14_p3	gamma_cid14_p4	gamma_cid14_p5
1	-0.3985459837907521	-0.05676957097665139	0.7029696377811457	1.473637713987685	-0.2295278404765961	-0.06641040511230287	-0.4363294601263767	1.149396334550619	1.149396334550636	-0.03007250558813994	0.1745242475134632	0.261244090170677	0.05555918422734774	-0.0002470462421664248	0.00288252791768509	0.01475660616840964	-0.04081679140663007	0.001604093041889716	-0.01057870356622351	-0.0002465226739607226	-0.05047648273386205	-0.0504764827338644	0.001109789496410055	-4.276234323027128e-05	-0.01083203193140187	-0.0008238464664977758	-0.3395315627482808	-0.001282537398332064	0.01274339389903382	-0.4015081919065021	0.08538597680008229	0.003869995829549176	0.3315211442202008	-3.446370122790317	-21.41542516613075	-0.7398917188922383	-0.9401731660651711	12.28841537568702	-787.9496021386472	61.12984800858428	1.731292112462164	0.2405275558722925	1.505387301440245	-5.447696972022984	0.06523618242623265	-0.7186356345458986	-0.01864010490418912	-4.468400761989694	-4.468400761989526	0.4167701831091626	0.005015786929506038	-0.9090690290996057	-0.1650321642763566	5.59102814052473e-10	5.289455954351061e-10	7.21137511051083e-09	7.240923059180689e-09	5.443995253789399e-10	-2.529618869776869e-09	5.853866907733836e-09
1.01	-0.3984627097066871	-0.05672871482975552	0.7031922606649497	1.472958316507723	-0.2295084616224701	-0.06655149846445746	-0.4363317054646018	1.148668518011915	1.148668518011875	-0.03004023171751461	0.1745236616798651	0.261090366264115	0.05554279955523356	0.01689362337730719	0.005293558346220677	0.02976003364558453	-0.09504368104117732	0.002272085535409657	-0.01763330918361714	-0.0001701865760231302	-0.09507172192847498	-0.09507172192847385	0.005347863009706432	-7.650621593723655e-05	-0.01990783456691803	-0.002451155429141788	-0.3394911349168147	-0.001334860989661102	0.01274715559568956	-0.4011366006992039	0.08534174973302612	0.00392614418449513	0.3315381790948714	-3.477135811331274	-21.40991429494532	-0.7063373893602961	-0.9548937459306382	12.20615419379848	-787.7285151937722	61.16169143962082	1.704218764123515	0.2421189886277867	1.496629177578365	-5.407331165008193	0.06764448973753531	-0.6978746306966928	0.02562426685990647	-4.452820169388324	-4.452820169388573	0.4277596678994057	-0.007882035324402148	-0.9060989732996617	-0.1612867434119657	6.669614772472051e-10	1.820193524264098e-09	1.371904006446332e-08	1.246764859897268e-08	-1.632385707952078e-09	-3.744544747249492e-09	1.035226105334823e-08
1.02	-0.3982082760508986	-0.05666360273812072	0.7035646795648697	1.471737220890304	-0.2294823901020489	-0.06676293819370388	-0.4363322166839138	1.147495202146981	1.147495202146867	-0.02996549036520793	0.1745226758954419	0.2608460317126975	0.05551020049726293	0.03398486809411453	0.007733716865472502	0.04471580939168707	-0.1491564189093399	0.002942626305709024	-0.0246479790153526	0.0001003015106294423	-0.1395763479707181	-0.1395763479707153	0.009603285821367965	-0.000122752526768109	-0.02895416090329559	-0.004066723637927765	-0.3394507070851415	-0.001387184580670205	0.0127509172904647	-0.4007650094919576	0.08529752266605969	0.003982292539928333	0.3315552139697456	-3.527046439558941	-21.4135161473931	-0.6716550197702416	-0.9729052879953012	12.13829964487746	-787.6498458068103	61.2086417623188	1.721407131928751	0.2463531740156938	1.495856955225811	-5.424866618746119	0.06574583778197024	-0.7106484774142634	0.02019029284247337	-4.450278131515735	-4.45027813151593	0.4202400427824574	0.002515299304967143	-0.9031737692716884	-0.1626840135049033	8.026338275174468e-10	2.340777821861529e-09	2.034388348487611e-08	1.785425313943767e-08	-2.189348668773372e-09	-5.394761211254713e-09	1.471671188113364e-08
1.03	-0.3977835367252973	-0.05657384350673082	0.7040863140953465	1.469975994060976	-0.2294496343084796	-0.06704428737906562	-0.4363280593224447	1.145877490678854	1.145877490678768	-0.02984805754237106	0.1745212109552387	0.2605115129983993	0.05546149802835743	0.05091707905623369	0.01023299539125567	0.05959254412295467	-0.20302547254953	0.003605897642616407	-0.0316105831641633	0.0008651052909479411	-0.1839308189951068	-0.1839308189951051	0.01389134636562897	-0.0001687741420025049	-0.03793133737736411	-0.005671987428754392	-0.339586744318151	-0.00142909062046843	0.01276042030673743	-0.4000629565779834	0.0852721448873693	0.004044831938713676	0.331860704544984	-3.596427457801022	-21.39722858226898	-0.6278030444278508	-0.9957042288186199	11.91031975855628	-787.4654279484236	61.23253135623626	1.672240960458582	0.2539445397055805	1.480797425137047	-5.358403127042653	0.06622748745035063	-0.6873758731729828	0.1247155431478042	-4.422762776785604	-4.422762776786107	0.4343031866014842	-0.007936628954384971	-0.8922536326681411	-0.1591731161843936	9.385899909211123e-10	2.853498204854552e-09	2.696992260392624e-08	2.324248909827688e-08	-2.729782830895576e-09	-7.049419415938839e-09	1.907979594036978e-08
